<?xml version="1.0" encoding="UTF-8"?>
<svg width="451px" height="110px" viewBox="0 0 451 110" version="1.1" xmlns="http://www.w3.org/2000/svg" xmlns:xlink="http://www.w3.org/1999/xlink">
    <title>Logos/Brand/Horizontal/Smith White</title>
    <g id="Logos/Brand/Horizontal/Smith-White" stroke="none" stroke-width="1" fill="none" fill-rule="evenodd">
        <g id="SmithLogo-Horz-web" transform="translate(20, 18)" fill="#FFFFFF">
            <path d="M69.2828555,46.2530806 C69.1672219,47.0210436 69.1205687,47.7978163 69.1434544,48.5740987 C63.8263496,50.8799273 58.0694734,51.9956147 52.275924,51.84304 C46.4729302,52.0008296 40.7058562,50.8850102 35.3805133,48.5740987 C35.3995544,47.7978797 35.3529212,47.0214407 35.2411122,46.2530806 C35.0930437,45.4397331 34.902265,44.6347433 34.6695678,43.8414522 C41.0750474,46.0160998 45.2989,46.8385627 52.0947026,46.8385627 C59.0647565,46.8385627 63.2467888,46.0160998 69.8056095,43.8414522 C69.5898023,44.6357552 69.4153168,45.4407115 69.2828555,46.2530806 L69.2828555,46.2530806 Z" id="Path" fill-rule="nonzero"></path>
            <path d="M33.9865025,28.2704182 C33.8540715,26.9112635 33.9865025,26.6394325 34.9413999,26.6394325 C35.8962973,26.6394325 35.8962973,26.771863 35.8962973,25.8169697 C35.8962973,24.7296459 35.7568962,24.8620763 34.9413999,24.8620763 C33.9865025,24.8620763 33.5473891,25.1339073 32.627342,25.1339073 C31.7072949,25.1339073 31.1287804,24.8620763 30.166913,24.8620763 C28.9471536,24.8620763 29.0795846,25.9563701 29.3514167,26.500032 C30.2224821,28.2559487 30.9520074,30.0785889 31.5330436,31.950591 C32.4941689,34.6307968 33.3131282,37.359874 33.9865025,40.1264293 C39.7984287,42.4443243 46.0209093,43.5564932 52.275924,43.3953707 C58.519335,43.5527267 64.7296785,42.440608 70.5304951,40.1264293 C71.1416628,37.3425807 71.9641895,34.6093803 72.9909241,31.950591 C73.6879295,29.9083739 74.3500846,28.9534805 75.165581,26.6394325 C75.4374131,25.9424301 75.304982,24.8620763 74.3500846,24.8620763 C73.2557862,24.8620763 72.8515231,25.1339073 71.8966257,25.1339073 C70.9417283,25.1339073 70.5026149,24.7296459 69.5755977,24.8620763 C68.7601014,25.0014768 68.6276704,24.5902454 68.6276704,25.8169697 C68.6276704,27.0436939 68.7601014,26.6394325 69.5755977,26.6394325 C70.391094,26.6394325 70.8023272,26.500032 70.5304951,28.2704182 C70.1192619,31.2675286 67.805204,33.7209771 64.8080809,33.5815766 C61.2672935,33.3097457 61.1348625,30.3126353 61.2672935,25.1339073 C61.270621,24.319973 61.9174836,23.6546314 62.7310048,23.6283821 C63.8183332,23.6283821 63.8183332,23.6283821 63.8183332,22.4086278 C63.8183332,21.314334 63.8183332,21.1749335 62.7310048,21.314334 C61.6922174,21.4705086 60.6446479,21.5612976 59.5944806,21.586165 C58.5071521,21.586165 57.8240869,21.314334 56.7367585,21.314334 C55.2381969,21.314334 55.2381969,21.314334 55.2381969,22.4086278 C55.2381969,23.6283821 55.3775979,23.4959516 56.7367585,23.6283821 C57.6916558,23.7677825 57.9634879,23.7677825 57.9634879,25.1269373 C57.9634879,29.078941 56.7367585,35.2125623 52.2410737,35.2125623 C47.7453889,35.2125623 46.2468273,29.078941 46.5186594,25.1269373 C46.5186594,23.6283821 46.9229226,23.6283821 47.7453889,23.6283821 C48.8327173,23.6283821 49.2439505,23.6283821 49.2439505,22.4086278 C49.2439505,21.4467645 49.2439505,21.314334 47.7453889,21.314334 C46.6510905,21.314334 45.9680252,21.586165 44.8806968,21.586165 C43.6539673,21.586165 43.1103031,21.314334 41.7441725,21.314334 C40.7892751,21.314334 40.6568441,21.314334 40.6568441,22.5410583 C40.6568441,23.4959516 40.6568441,23.6283821 41.7441725,23.6283821 C42.8315009,23.6283821 43.2497042,23.2241206 43.2497042,25.1269373 C43.2497042,28.80711 43.2497042,33.3027756 39.7019467,33.5746066 C36.6911681,33.6031801 34.1824093,31.2749395 33.9865025,28.2704182 Z" id="Path" fill-rule="nonzero"></path>
            <path d="M55.2800172,16.6583578 C29.2747461,17.0417092 8.31579405,23.321701 8.42034486,30.6750765 C8.46913523,34.56435 14.519142,37.9796619 23.9496249,40.2797699 C8.48307534,38.8230348 0.0771903453,34.7804208 0,29.7689734 L0,29.7689734 C-0.124941218,21.6349551 22.4789436,14.699781 50.4846201,14.2815796 C70.0286512,14.0236887 86.812541,17.3553603 93.3992419,22.2343772 C85.1745783,19.0490761 70.7186866,16.8047284 55.3078974,16.6583578 L55.2800172,16.6583578 Z" id="Path" fill-rule="nonzero"></path>
            <path d="M50.4846201,56.450226 C76.468981,56.0668747 97.4488433,49.7868829 97.3442924,42.4335074 C97.2955021,38.5442338 91.2454953,35.121952 81.8080423,32.828814 C97.281562,34.2855491 105.687447,38.3560432 105.757667,43.3396105 L105.757667,43.3396105 C105.882608,51.4736287 83.2787237,58.4018328 55.2800172,58.8270043 C35.7638663,59.1197453 18.9520963,55.8020138 12.3932756,50.8881467 C20.6179392,54.0734478 35.073831,56.3177956 50.4846201,56.4641661 L50.4846201,56.450226 Z" id="Path" fill-rule="nonzero"></path>
            <rect id="Rectangle" fill-rule="nonzero" x="297.607881" y="0" width="2.22344719" height="74.872"></rect>
            <path d="M341.965304,32.9682145 C341.920007,33.0982057 341.859158,33.222243 341.784083,33.3376258 C340.487653,35.0731618 338.410576,34.9337613 336.27077,34.9337613 C331.998127,34.9337613 326.923928,33.4352061 323.438901,32.842754 C321.013322,32.4245526 321.110903,32.4036425 319.654161,32.1457516 C324.428648,31.7833104 327.321221,28.3261784 327.18182,23.2241206 C327.063329,18.9584658 324.393798,15.557094 318.406522,15.7522547 C312.830479,15.9125653 309.875176,19.4393975 310.042457,24.5623653 C310.181858,29.5250225 313.276562,31.6229998 317.075241,32.1457516 C316.622188,32.243332 316.273685,32.4036425 315.855482,32.5221329 C315.467712,32.6074526 315.105042,32.7816285 314.796034,33.0309447 C314.425562,33.9276291 313.938074,34.7713537 313.346263,35.5401534 C313.576274,35.7771342 313.896897,36.000175 313.938717,35.9583549 C314.816944,35.0801318 316.134284,33.700067 318.859575,34.1112985 C321.166663,34.4597997 321.069082,34.55041 323.794373,35.1080119 C327.2097,35.8050143 333.203946,37.2965995 336.431081,37.2756894 C340.404012,37.2268993 341.184658,36.2092757 341.310119,35.8259244 C341.594737,34.9622708 341.973392,34.1325055 342.439268,33.3515658 C342.439268,33.2818656 342.181376,33.1006449 341.972274,33.0030646 M323.696793,23.3914012 C323.996505,26.6742826 322.999787,30.3614254 319.51476,30.8423571 C315.179387,31.4278391 313.513544,27.2737047 313.513544,24.2068941 C313.513544,20.443081 314.210549,17.28566 318.016199,16.999889 C321.661537,16.7280581 323.2995,18.993316 323.696793,23.3914012 Z" id="Shape"></path>
            <path d="M329.481937,28.6398295 C329.481937,30.8284171 330.541386,32.257272 333.078485,32.257272 C333.617098,32.2670992 334.140526,32.0785666 334.549167,31.7275502 L336.30562,30.0198942 L336.194099,31.9296809 C337.114146,31.9296809 337.762361,31.8669507 338.152684,31.8669507 C338.800899,31.8669507 339.769737,31.9087708 340.710694,31.9296809 L340.710694,31.0793379 L339.950958,31.0305478 C339.470025,30.9887276 339.253953,30.8702372 339.212133,30.6402264 C339.131729,30.2860909 339.101231,29.9224535 339.121522,29.5598726 L339.121522,21.1400834 L338.89151,21.0006829 L337.274458,21.5094947 C336.421355,21.7461386 335.549041,21.9070727 334.667658,21.9904264 L334.667658,22.8337993 L335.706196,22.9034995 C336.2638,22.9453197 336.30562,23.2032106 336.30562,24.5135751 L336.30562,28.1101076 C336.322219,28.4213324 336.24968,28.7308332 336.096519,29.0022707 C335.690893,29.6958291 334.961476,30.136626 334.158844,30.1732348 C332.38148,30.1732348 332.290869,28.6607395 332.290869,27.1621843 L332.290869,21.1400834 L332.067827,21.0006829 L330.443805,21.5094947 C329.592919,21.7454916 328.722977,21.9064185 327.843975,21.9904264 L327.843975,22.8337993 L328.882513,22.9034995 C329.433147,22.9453197 329.481937,23.2032106 329.481937,24.5135751 L329.481937,28.6398295" id="Path" fill-rule="nonzero"></path>
            <path d="M345.547912,22.2901374 C347.255575,22.2901374 347.436796,24.1302238 347.436796,25.4963485 C346.795551,25.4963485 346.147336,25.5660488 345.499121,25.5660488 C344.850906,25.5660488 344.209661,25.5172586 343.561446,25.4963485 C343.561446,23.321701 344.209661,22.2901374 345.547912,22.2901374 M346.725851,26.7161028 C347.95575,26.7211424 349.1811,26.5665099 350.371189,26.2560812 L350.371189,25.057237 C350.371189,22.3598376 348.433514,20.9937129 345.868534,20.9937129 C345.202281,20.994012 344.5489,21.177247 343.97965,21.5234347 L342.892321,22.171647 C340.961616,23.321701 340.703724,25.0363269 340.703724,26.9252035 C340.703724,30.2220249 342.571699,32.257272 345.938235,32.257272 C347.238479,32.2761386 348.518073,31.930891 349.632363,31.2605586 L350.134207,30.1592947 L349.855405,29.8107935 C349.102816,30.2727753 348.248442,30.5432063 347.367096,30.5984063 C344.969397,30.5984063 343.707817,28.9325705 343.707817,26.6951927 L346.725851,26.7161028 Z" id="Shape"></path>
            <path d="M356.623327,22.2901374 C358.33099,22.2901374 358.512212,24.1302238 358.512212,25.4963485 C357.863997,25.4963485 357.222752,25.5660488 356.581507,25.5660488 C355.940262,25.5660488 355.285077,25.5172586 354.636862,25.4963485 C354.636862,23.321701 355.285077,22.2901374 356.623327,22.2901374 M357.794296,26.7161028 C359.026494,26.7211956 360.254156,26.5665672 361.446605,26.2560812 L361.446605,25.057237 C361.446605,22.3598376 359.50893,20.9937129 356.94395,20.9937129 C356.277696,20.994012 355.624316,21.177247 355.055065,21.5234347 L353.967737,22.171647 C352.037032,23.321701 351.77914,25.0363269 351.77914,26.9252035 C351.77914,30.2220249 353.647114,32.257272 357.01365,32.257272 C358.313895,32.2761386 359.593489,31.930891 360.707779,31.2605586 L361.209623,30.1592947 L360.930821,29.8107935 C360.178232,30.2727753 359.323858,30.5432063 358.442511,30.5984063 C356.044813,30.5984063 354.776263,28.9325705 354.776263,26.6951927 L357.794296,26.7161028 Z" id="Shape"></path>
            <path d="M363.837333,29.5598726 C363.854134,29.9223967 363.823674,30.2855655 363.746722,30.6402264 C363.677022,30.8702372 363.48883,30.9887276 363.007897,31.0305478 L362.19937,31.0793379 L362.19937,31.9296809 C363.189118,31.9296809 364.157956,31.8669507 365.175583,31.8669507 C366.325642,31.8669507 367.2666,31.9087708 368.291197,31.9296809 L368.291197,31.0793379 L367.482671,31.0305478 C367.001738,30.9887276 366.785666,30.8702372 366.743846,30.6402264 C366.663442,30.2860909 366.632944,29.9224535 366.653235,29.5598726 L366.653235,24.5484252 C366.802314,23.6639168 367.55494,23.0075605 368.451509,22.9801698 C369.077573,22.9076206 369.7052,23.1024879 370.180082,23.5168617 C370.598285,23.9280931 370.779507,24.5275152 370.779507,25.6078689 L370.779507,31.8808907 C371.427722,31.8808907 372.096847,31.8181605 372.926283,31.8181605 C373.75572,31.8181605 374.355144,31.8599806 375.184581,31.8808907 L375.184581,31.0793379 L374.424845,31.0305478 C373.943911,30.9887276 373.72784,30.8702372 373.686019,30.6402264 C373.605776,30.2837042 373.575283,29.9177887 373.595409,29.5529026 L373.595409,25.2663377 C373.595409,23.8723329 373.525708,22.750159 372.745062,21.9207261 C372.06399,21.3014681 371.169972,20.9693343 370.249783,20.9937129 C369.633641,20.9366997 369.016485,21.0916026 368.500299,21.4328244 L366.653235,22.8756194 L366.653235,21.1400834 L366.513834,20.9937129 C365.132819,21.5372764 363.678869,21.8731633 362.19937,21.9904264 L362.19937,22.8337993 L363.237908,22.9034995 C363.788543,22.9453197 363.837333,23.2032106 363.837333,24.5135751 L363.837333,29.5598726" id="Path" fill-rule="nonzero"></path>
            <path d="M375.721275,23.0777501 C375.557392,23.895674 375.345602,24.7032645 375.087,25.4963485 L375.275191,25.7472694 L376.613442,25.050267 C377.003765,24.2626543 377.310447,23.7538425 377.61016,22.9244096 C378.004061,21.9763517 378.341536,21.0058233 378.620817,20.0179095 L378.321105,19.8366889 C377.930782,20.0179095 377.67289,20.15731 377.261657,20.3176206 C376.869718,20.4768057 376.466713,20.6072574 376.055838,20.7079419 C375.99372,21.5086788 375.881984,22.3047907 375.721275,23.0916902" id="Path" fill-rule="nonzero"></path>
            <path d="M385.974224,24.3253845 L386.155446,21.5373748 C385.248337,21.1452876 384.264077,20.9641655 383.276813,21.007653 C380.572432,21.007653 378.530207,21.9764863 378.530207,24.6111555 C378.530207,26.0678905 379.359643,27.057634 380.969726,27.4479553 L382.956191,27.935857 C383.806537,28.1449577 384.405962,28.4167887 384.405962,29.4344122 C384.385194,29.9307967 384.161544,30.396887 383.787322,30.7236711 C383.4131,31.0504553 382.921126,31.2092727 382.426467,31.1629782 C381.379221,31.2322677 380.365054,30.7812387 379.715116,29.957164 L379.596625,28.3679985 L378.697488,28.3679985 L378.537177,31.6229998 C379.686012,32.0494343 380.90133,32.2688986 382.126754,32.2712121 C384.496573,32.2712121 386.963972,31.0235777 386.963972,28.3470884 C386.963972,26.4582119 385.904524,25.7402994 384.036549,25.3220979 L382.140695,24.9108665 C381.269438,24.7226759 380.872145,24.3532646 380.872145,23.621412 C380.872145,22.6246986 381.687641,22.1158868 383.025891,22.1158868 C383.757747,22.1158868 384.824165,22.5340883 384.914776,23.0219899 L385.151758,24.3532646 L385.974224,24.3532646" id="Path" fill-rule="nonzero"></path>
            <path d="M311.994072,52.421552 C311.994072,55.0283411 314.224489,56.9032776 318.587743,56.9032776 C322.769776,56.9032776 325.007163,54.9377308 325.007163,50.7208661 L325.007163,43.9878228 C324.949706,43.3605865 325.003984,42.7281307 325.167474,42.1198563 C325.278995,41.8898455 325.509007,41.7783251 326.108431,41.7295349 L326.965748,41.6598347 L326.965748,40.7955517 C326.087521,40.7955517 325.209294,40.8652519 324.331068,40.8652519 C323.452841,40.8652519 322.560674,40.8164617 321.682447,40.7955517 L321.682447,41.6598347 L322.532794,41.7295349 C323.132218,41.7783251 323.36223,41.8898455 323.480721,42.1198563 C323.640548,42.7287694 323.694771,43.3605813 323.641032,43.9878228 L323.641032,49.5638421 C323.641032,52.9094537 323.201919,55.0283411 319.347479,55.0283411 C315.493039,55.0283411 315.242117,52.979154 315.242117,49.7241527 L315.242117,44.0087328 C315.192112,43.3814971 315.246281,42.7503099 315.402429,42.1407663 C315.520919,41.9107555 315.750931,41.7992352 316.350356,41.750445 L317.207672,41.6807447 L317.207672,40.7955517 C316.259745,40.7955517 314.991195,40.8652519 313.632035,40.8652519 C312.272874,40.8652519 310.976444,40.8164617 310.028517,40.7955517 L310.028517,41.6598347 L310.864923,41.750445 C311.464348,41.7992352 311.69436,41.9107555 311.805881,42.1407663 C311.969289,42.7490552 312.025889,43.3810887 311.973162,44.0087328 L311.973162,52.4424621" id="Path" fill-rule="nonzero"></path>
            <path d="M328.185507,54.2058782 C328.204071,54.5687955 328.171219,54.9325145 328.087927,55.286232 C328.018226,55.5162428 327.837005,55.6347332 327.390921,55.6765533 L326.547545,55.6904934 L326.547545,56.5478064 C327.537292,56.5478064 328.50613,56.4850761 329.516788,56.4850761 C330.673817,56.4850761 331.642654,56.5268963 332.639372,56.5478064 L332.639372,55.6904934 L331.830846,55.6904934 C331.342942,55.6486732 331.13384,55.5301828 331.09202,55.300172 C331.005166,54.9470409 330.972266,54.582797 330.994439,54.2198183 L330.994439,49.1944308 C331.146027,48.3113287 331.897196,47.6562421 332.792713,47.6261754 C333.419923,47.5514656 334.049669,47.7436763 334.528256,48.1558972 C334.93949,48.5671287 335.127681,49.1735208 335.127681,50.2469045 L335.127681,56.5199263 C335.775896,56.5199263 336.438051,56.4571961 337.274458,56.4571961 C338.110864,56.4571961 338.703319,56.4990162 339.532755,56.5199263 L339.532755,55.6904934 L338.745139,55.6904934 C338.257235,55.6486732 338.048134,55.5301828 338.006313,55.300172 C337.923193,54.9440623 337.890347,54.5780675 337.908733,54.2128483 L337.908733,49.9123433 C337.908733,48.5531886 337.846002,47.3961646 337.058386,46.5667317 C336.380999,45.9460015 335.488485,45.6134978 334.570077,45.6397185 C333.951702,45.5822153 333.332187,45.7370933 332.813623,46.07883 L330.966559,47.521625 L330.966559,45.786089 L330.827158,45.6397185 C329.456264,46.1757431 328.014583,46.5091599 326.547545,46.6294619 L326.547545,47.4658648 L327.586083,47.5355651 C328.136717,47.5843552 328.185507,47.8352761 328.185507,49.1456407 L328.185507,54.1989082" id="Path" fill-rule="nonzero"></path>
            <path d="M342.927171,40.2170397 C342.461467,40.2112205 342.013432,40.3950965 341.686081,40.7263898 C341.35873,41.057683 341.180232,41.5078863 341.191628,41.9734858 C341.191628,42.9358453 341.971778,43.7159918 342.934141,43.7159918 C343.896505,43.7159918 344.676655,42.9358453 344.676655,41.9734858 C344.690196,41.5048449 344.510462,41.0512496 344.179603,40.7190737 C343.848743,40.3868978 343.395864,40.2053624 342.927171,40.2170397 M341.609831,54.2058782 C341.629669,54.5684527 341.599176,54.9320273 341.51922,55.286232 C341.44952,55.5162428 341.261328,55.6347332 340.780395,55.6765533 L339.971869,55.7183735 L339.971869,56.5756865 C340.961616,56.5756865 341.930454,56.5129562 342.948082,56.5129562 C344.10511,56.5129562 345.039098,56.5547764 346.063696,56.5756865 L346.063696,55.6904934 L345.220319,55.6904934 C344.732415,55.6486732 344.523314,55.5301828 344.481493,55.300172 C344.398201,54.9464545 344.365349,54.5827356 344.383913,54.2198183 L344.383913,45.786089 L344.153901,45.6397185 L342.543818,46.1485303 C341.691689,46.3907723 340.819077,46.5540947 339.937018,46.6364319 L339.937018,47.4728349 L340.975556,47.5425351 C341.533161,47.5913253 341.574981,47.8422461 341.574981,49.1526107 L341.609831,54.2058782 Z" id="Shape"></path>
            <path d="M350.677871,56.5756865 L352.685247,56.5756865 C352.957079,55.8159538 353.235881,55.0492512 353.556504,54.3383087 L356.511806,47.6958756 C356.620973,47.2999227 356.940175,46.9968169 357.341243,46.9082629 L358.038248,46.7967425 L358.038248,45.9324595 C357.292452,45.9324595 356.560597,45.9951897 355.821771,45.9951897 C355.082945,45.9951897 354.316239,45.9533696 353.577414,45.9324595 L353.577414,46.8106826 L354.455641,46.8525027 C354.664742,46.8525027 354.985365,46.9919032 354.985365,47.221914 C354.985691,47.5553595 354.916864,47.8852496 354.783233,48.1907473 L353.389222,51.6757594 C353.13133,52.2960916 352.859498,52.9233938 352.580696,53.5228159 L350.55241,48.4207581 C350.379554,48.0584666 350.268814,47.669701 350.224818,47.2707042 C350.224818,46.9709931 350.45483,46.8803828 350.761512,46.8525027 L351.702469,46.8106826 L351.702469,45.9324595 C350.712722,45.9324595 349.722974,45.9951897 348.726256,45.9951897 C347.729539,45.9951897 346.68403,45.9324595 345.715193,45.9324595 L345.715193,46.8106826 L346.293707,46.8525027 C346.795551,46.9012929 347.095264,47.5495051 347.394976,48.2465075 L350.698781,56.5547764" id="Path" fill-rule="nonzero"></path>
            <path d="M362.234221,46.929173 C363.941884,46.929173 364.123105,48.7762294 364.123105,50.1353841 C363.47489,50.1353841 362.826675,50.2050843 362.18543,50.2050843 C361.544185,50.2050843 360.89597,50.1632642 360.247755,50.1353841 C360.247755,47.9677066 360.89597,46.929173 362.234221,46.929173 M363.40519,51.3551383 C364.634827,51.3631645 365.860264,51.2108641 367.050528,50.9020868 L367.050528,49.7032426 C367.050528,47.0058432 365.112853,45.6397093 362.554843,45.6397093 C361.888342,45.6382124 361.234482,45.821582 360.665959,46.1694403 L359.57863,46.8176526 C357.640955,47.9677066 357.383063,49.6823325 357.383063,51.5712091 C357.383063,54.8680305 359.258008,56.9032776 362.624544,56.9032776 C363.924371,56.9188294 365.203076,56.5738219 366.318672,55.9065641 L366.827486,54.7983303 L366.548684,54.4567991 C365.794143,54.9221864 364.937818,55.1972616 364.053405,55.2583519 C361.662676,55.2583519 360.387156,53.5994861 360.387156,51.3551383 L363.40519,51.3551383 Z" id="Shape"></path>
            <path d="M369.364586,54.2058782 C369.386759,54.5688569 369.353859,54.9331008 369.267005,55.286232 C369.197305,55.5162428 369.016083,55.6347332 368.57,55.6765533 L367.754503,55.7183735 L367.754503,56.5756865 C368.751221,56.5756865 369.720059,56.5129562 370.730716,56.5129562 C371.887745,56.5129562 372.821733,56.5547764 374.215743,56.5756865 L374.215743,55.6904934 L373.281756,55.6904934 C372.800822,55.6904934 372.340799,55.5301828 372.271098,55.300172 C372.187522,54.9465345 372.156984,54.5824367 372.180488,54.2198183 L372.180488,49.6335424 C372.364637,48.7835268 373.109168,48.1717441 373.978761,48.1558972 C374.569576,48.1202673 375.122222,48.4490903 375.372772,48.9853301 L375.937347,48.7553193 L376.055838,45.786089 C375.735928,45.664784 375.39338,45.6148293 375.05215,45.6397185 C374.403935,45.6397185 373.895121,46.1485303 373.225996,46.8664427 L372.201398,47.9816466 L372.201398,45.786089 L371.964416,45.6397185 L370.347363,46.1485303 C369.495234,46.3907723 368.622622,46.5540947 367.740563,46.6364319 L367.740563,47.4728349 L368.786071,47.5425351 C369.336706,47.5913253 369.385496,47.8422461 369.385496,49.1526107 L369.385496,54.2058782" id="Path" fill-rule="nonzero"></path>
            <path d="M384.343232,48.9853301 L384.531423,46.1973204 C383.625326,45.801913 382.640291,45.6206481 381.652791,45.6675986 C378.94841,45.6675986 376.899214,46.6364319 376.899214,49.2641311 C376.899214,50.7208661 377.72865,51.7106096 379.338733,52.1079009 L381.325198,52.5888326 C382.182515,52.7979333 382.78194,53.0767343 382.78194,54.0873878 C382.763163,54.5863399 382.539353,55.055438 382.163341,55.3839525 C381.787329,55.712467 381.292434,55.8712871 380.795474,55.8229239 C379.748881,55.8885656 378.736333,55.4382566 378.084123,54.6171097 L377.972602,53.0279441 L377.080435,53.0279441 L376.920124,56.2829454 C378.068646,56.7105259 379.284171,56.9300275 380.509702,56.9311577 C382.87952,56.9311577 385.346919,55.6835234 385.346919,53.0070341 C385.346919,51.1111875 384.287471,50.400245 382.419497,49.9820436 L380.530612,49.5708121 C379.652385,49.3826215 379.262062,49.0132102 379.262062,48.2813577 C379.262062,47.2846442 380.063619,46.7758324 381.401869,46.7758324 C382.140695,46.7758324 383.200143,47.1870639 383.290753,47.6749656 L383.527735,49.0132102 L384.350202,49.0132102" id="Path" fill-rule="nonzero"></path>
            <path d="M388.824976,40.2170397 C388.358677,40.2092333 387.909472,40.3924764 387.581683,40.7242133 C387.253894,41.0559502 387.076043,41.5073154 387.089433,41.9734858 C387.089433,42.9358453 387.869583,43.7159918 388.831946,43.7159918 C389.79431,43.7159918 390.57446,42.9358453 390.57446,41.9734858 C390.585806,41.5091082 390.408253,41.0599985 390.082427,40.7289189 C389.756601,40.3978393 389.310388,40.2131245 388.845886,40.2170397 M387.535516,54.2058782 C387.55408,54.5687955 387.521227,54.9325145 387.437936,55.286232 C387.375205,55.5162428 387.187014,55.6347332 386.69911,55.6765533 L385.897554,55.7183735 L385.897554,56.5756865 C386.887301,56.5756865 387.856139,56.5129562 388.873767,56.5129562 C390.023826,56.5129562 390.964783,56.5547764 391.982411,56.5756865 L391.982411,55.6904934 L391.146004,55.6904934 C390.66507,55.6486732 390.483849,55.5301828 390.448999,55.300172 C390.369044,54.9459673 390.33855,54.5823927 390.358388,54.2198183 L390.358388,45.786089 L390.121406,45.6397185 L388.511324,46.1485303 C387.658945,46.389711 386.786431,46.553015 385.904524,46.6364319 L385.904524,47.4728349 L386.943062,47.5425351 C387.493696,47.5913253 387.542486,47.8422461 387.542486,49.1526107 L387.535516,54.2058782 Z" id="Shape"></path>
            <path d="M396.164443,46.0579199 C396.164443,45.3609175 396.234144,44.921806 396.255054,44.2596537 C396.303844,43.472041 396.373545,42.9423191 396.443245,42.1686464 L396.115653,41.9107555 C395.57092,42.229208 394.999551,42.4997327 394.407989,42.7192783 C393.857355,42.900499 393.710984,42.9911093 393.257931,43.1374798 C393.356875,43.7764544 393.410446,44.4216336 393.418242,45.0681765 C393.418242,45.486378 393.418242,45.7163888 393.418242,46.1136801 C393.118529,46.2949008 392.909428,46.4552113 392.637596,46.6155219 C392.365764,46.7758324 392.170602,46.9152329 391.8918,47.0546334 L391.8918,47.4658648 L393.369451,47.4658648 L393.369451,54.71469 C393.393862,55.4935686 393.810977,56.2071201 394.47769,56.6105366 C395.463078,57.0911198 396.614887,57.0911198 397.600274,56.6105366 C397.781496,56.3317356 397.983627,56.1226349 398.192729,55.8508039 C398.40183,55.578973 398.610932,55.3698723 398.889734,55.0841013 L398.687603,54.6728699 C398.144297,55.0000253 397.486064,55.0762681 396.882359,54.8819706 C396.470992,54.7197923 396.196518,54.3272962 396.185353,53.8852571 L396.185353,47.4588948 L398.687603,47.4588948 C398.860761,47.4299831 399.03768,47.4812638 399.168536,47.5982953 C399.290428,47.6905804 399.378596,47.8203826 399.419458,47.9677066 L402.744174,56.4571961 L403.52482,56.4571961 L402.095959,59.8725079 C401.715802,60.5487815 400.972304,60.9369293 400.200104,60.8622513 C399.667077,60.8098047 399.193362,60.5000696 398.931554,60.0328185 L398.590022,60.1234288 L398.40183,61.5174336 L398.199699,62.2841363 C398.836667,62.6361846 399.567869,62.779987 400.290715,62.6953677 C401.879887,62.5350572 402.779024,61.4686435 403.399359,60.0188784 L408.480528,48.093167 C408.588117,47.8348975 408.764016,47.6108074 408.989342,47.4449548 C409.274412,47.1834712 409.62277,47.0008845 410,46.9152329 L410,46.0579199 L405.734327,46.0579199 L405.734327,46.9082629 L406.10374,46.9082629 C406.612554,46.9082629 407.051667,47.1382737 407.121368,47.4379847 C407.145801,47.6267553 407.121816,47.8186388 407.051667,47.9955867 L404.737609,53.7388866 L402.172629,47.0755435 C402.069893,46.8280071 401.904073,46.6117203 401.691696,46.4482413 C401.32468,46.1759272 400.871915,46.0447993 400.416176,46.07883 L396.171413,46.07883" id="Path" fill-rule="nonzero"></path>
            <path d="M119.097831,71.4636582 C119.899195,71.9119481 120.800383,72.1516248 121.718571,72.1606606 C122.987121,72.1606606 123.698066,71.5682085 123.698066,70.6830155 C123.698066,69.7978224 123.147432,69.3796209 121.767361,68.8847492 C119.983027,68.236537 118.839939,67.2886137 118.839939,65.7273282 C118.839939,63.9639121 120.31759,62.6117274 122.666498,62.6117274 C123.565908,62.5875212 124.458544,62.7736851 125.273298,63.1553893 L124.764484,64.7515249 C124.099184,64.407041 123.359912,64.2299991 122.610738,64.2357431 C121.349158,64.2357431 120.805494,64.9327455 120.805494,65.5391376 C120.805494,66.3755405 121.432799,66.7588918 122.89651,67.3234638 C124.778425,68.0204662 125.684532,68.9823295 125.684532,70.5366449 C125.684532,72.279151 124.367191,73.7916462 121.5722,73.7916462 C120.555288,73.7916462 119.552578,73.552907 118.644777,73.0946438 L119.097831,71.4636582 Z" id="Path" fill-rule="nonzero"></path>
            <path d="M136.055972,73.2967745 C135.171117,73.6530799 134.22122,73.8193112 133.26795,73.7846762 C129.831714,73.7846762 127.740697,71.6239687 127.740697,68.3271473 C127.740697,64.7584949 130.215067,62.6047574 133.525842,62.6047574 C134.430783,62.5725287 135.331975,62.7365972 136.167493,63.0856891 L135.728379,64.6609145 C135.067218,64.3802753 134.355605,64.2379533 133.637363,64.2427131 C131.434826,64.2427131 129.838684,65.6367179 129.838684,68.2295669 C129.838684,70.6133152 131.232694,72.1397505 133.623423,72.1397505 C134.36042,72.149531 135.092169,72.0145487 135.77717,71.7424591 L136.055972,73.2967745 Z" id="Path" fill-rule="nonzero"></path>
            <polygon id="Path" fill-rule="nonzero" points="140.516806 62.779008 140.516806 67.1213331 145.103102 67.1213331 145.103102 62.779008 147.068657 62.779008 147.068657 73.6173956 145.096132 73.6173956 145.096132 68.8429291 140.516806 68.8429291 140.516806 73.6173956 138.537311 73.6173956 138.537311 62.779008"></polygon>
            <path d="M159.754155,68.0901664 C159.754155,71.7215491 157.551618,73.7986163 154.554495,73.7986163 C151.557372,73.7986163 149.577876,71.4636582 149.577876,68.2783571 C149.577876,64.9536556 151.668893,62.6047574 154.721776,62.6047574 C157.886181,62.6047574 159.754155,65.0024457 159.754155,68.0901664 Z M151.661922,68.250477 C151.661922,70.4530047 152.770161,72.2024807 154.672986,72.2024807 C156.57581,72.2024807 157.663139,70.4390646 157.663139,68.1668367 C157.663139,66.1246196 156.645511,64.1939229 154.672986,64.1939229 C152.70046,64.1939229 151.661922,66.0130992 151.661922,68.236537 L151.661922,68.250477 Z" id="Shape" fill-rule="nonzero"></path>
            <path d="M171.868109,68.0901664 C171.868109,71.7215491 169.665572,73.7986163 166.675419,73.7986163 C163.685265,73.7986163 161.68486,71.4636582 161.68486,68.2783571 C161.68486,64.9536556 163.775876,62.6047574 166.83573,62.6047574 C170.000134,62.6047574 171.868109,65.0024457 171.868109,68.0901664 Z M163.796786,68.236537 C163.796786,70.4390646 164.905025,72.1885407 166.80088,72.1885407 C168.696734,72.1885407 169.791033,70.4251246 169.791033,68.1528967 C169.791033,66.1106796 168.780375,64.1799829 166.80088,64.1799829 C164.821384,64.1799829 163.796786,66.0130992 163.796786,68.236537 Z" id="Shape" fill-rule="nonzero"></path>
            <polygon id="Path" fill-rule="nonzero" points="174.363388 62.779008 176.342883 62.779008 176.342883 71.9654999 180.796748 71.9654999 180.796748 73.6173956 174.363388 73.6173956"></polygon>
            <path d="M196.834842,68.0901664 C196.834842,71.7215491 194.632305,73.7986163 191.642152,73.7986163 C188.651998,73.7986163 186.651593,71.4636582 186.651593,68.2783571 C186.651593,64.9536556 188.742609,62.6047574 191.802463,62.6047574 C194.966867,62.6047574 196.834842,65.0024457 196.834842,68.0901664 Z M188.749579,68.250477 C188.749579,70.4530047 189.850848,72.2024807 191.753672,72.2024807 C193.656497,72.2024807 194.743826,70.4390646 194.743826,68.1668367 C194.743826,66.1246196 193.733168,64.1939229 191.753672,64.1939229 C189.774177,64.1939229 188.749579,66.0130992 188.749579,68.236537 L188.749579,68.250477 Z" id="Shape" fill-rule="nonzero"></path>
            <polygon id="Path" fill-rule="nonzero" points="199.344061 62.779008 205.61711 62.779008 205.61711 64.4030236 201.337497 64.4030236 201.337497 67.393164 205.324367 67.393164 205.324367 69.0241497 201.337497 69.0241497 201.337497 73.6173956 199.344061 73.6173956"></polygon>
            <path d="M212.440792,62.9253785 C213.392219,62.7690635 214.355275,62.6944444 215.319425,62.7023377 C216.783136,62.7023377 217.682273,62.8765883 218.421099,63.3993402 C219.147657,63.8216693 219.583933,64.6085685 219.557217,65.4485273 C219.526829,66.5395257 218.798413,67.487306 217.751973,67.7974254 L217.751973,67.7974254 C219.026073,68.058878 219.940643,69.1802409 219.94057,70.4808848 C219.959397,71.3487738 219.572884,72.1759084 218.895062,72.7182625 C218.121386,73.4152649 216.852837,73.7359443 214.873341,73.7359443 C214.062549,73.737873 213.252432,73.6889868 212.447762,73.5895155 L212.440792,62.9253785 Z M214.399378,67.2049734 L215.417005,67.2049734 C216.811016,67.2049734 217.556812,66.5567611 217.556812,65.643688 C217.556812,64.7306148 216.783136,64.1660428 215.528526,64.1660428 C215.15051,64.1527987 214.772134,64.1784908 214.399378,64.2427131 L214.399378,67.2049734 Z M214.399378,72.1885407 C214.746494,72.2269471 215.095701,72.2432434 215.444886,72.2373309 C216.720406,72.2373309 217.842584,71.7563992 217.842584,70.4181545 C217.842584,69.0799099 216.769196,68.6547384 215.375185,68.6547384 L214.399378,68.6547384 L214.399378,72.1885407 Z" id="Shape" fill-rule="nonzero"></path>
            <path d="M224.436255,62.779008 L224.436255,69.10082 C224.436255,71.2266773 225.321452,72.2024807 226.652732,72.2024807 C227.984013,72.2024807 228.93891,71.2266773 228.93891,69.10082 L228.93891,62.779008 L230.911435,62.779008 L230.911435,68.9753595 C230.911435,72.3209711 229.196802,73.7986163 226.590002,73.7986163 C223.983202,73.7986163 222.45676,72.4046114 222.45676,68.9892996 L222.45676,62.779008 L224.436255,62.779008 Z" id="Path" fill-rule="nonzero"></path>
            <path d="M233.957349,71.4636582 C234.758029,71.9136338 235.659658,72.1534277 236.578089,72.1606606 C237.846639,72.1606606 238.550614,71.5682085 238.550614,70.6830155 C238.550614,69.7978224 238.00695,69.3796209 236.619909,68.8847492 C234.835576,68.236537 233.699457,67.2886137 233.699457,65.7273282 C233.699457,63.9639121 235.177108,62.6117274 237.519046,62.6117274 C238.420682,62.587717 239.315536,62.7738459 240.132817,63.1553893 L239.644913,64.7515249 C238.98001,64.4059746 238.240469,64.2288683 237.491166,64.2357431 C236.236556,64.2357431 235.692892,64.9327455 235.692892,65.5391376 C235.692892,66.3755405 236.320197,66.7588918 237.783908,67.3234638 C239.665823,68.0204662 240.57193,68.9823295 240.57193,70.5366449 C240.57193,72.279151 239.25459,73.7916462 236.452628,73.7916462 C235.435807,73.7908695 234.433275,73.5521724 233.525205,73.0946438 L233.957349,71.4636582 Z" id="Path" fill-rule="nonzero"></path>
            <polygon id="Path" fill-rule="nonzero" points="245.123375 62.779008 245.123375 73.6173956 243.14388 73.6173956 243.14388 62.779008"></polygon>
            <path d="M248.190199,73.6173956 L248.190199,62.779008 L250.441526,62.779008 L253.229548,67.4280142 C253.930319,68.5956941 254.54755,69.8115172 255.076612,71.0663668 L255.076612,71.0663668 C254.951151,69.6166018 254.902361,68.2156269 254.902361,66.5567611 L254.902361,62.779008 L256.735485,62.779008 L256.735485,73.6173956 L254.693259,73.6173956 L251.863417,68.8568691 C251.142761,67.6482278 250.493436,66.3984581 249.918772,65.1139661 L249.863012,65.1139661 C249.946652,66.507971 249.960593,67.9437959 249.960593,69.7281221 L249.960593,73.6034556 L248.190199,73.6173956 Z" id="Path" fill-rule="nonzero"></path>
            <polygon id="Path" fill-rule="nonzero" points="265.915046 68.8080789 261.830594 68.8080789 261.830594 71.99338 266.39598 71.99338 266.39598 73.6173956 259.851099 73.6173956 259.851099 62.779008 266.158998 62.779008 266.158998 64.4030236 261.830594 64.4030236 261.830594 67.1910333 265.915046 67.1910333"></polygon>
            <path d="M268.877319,71.4636582 C269.681312,71.9116858 270.584677,72.1513043 271.505029,72.1606606 C272.773579,72.1606606 273.477554,71.5682085 273.477554,70.6830155 C273.477554,69.7978224 272.93389,69.3796209 271.553819,68.8847492 C269.762516,68.236537 268.626397,67.2886137 268.626397,65.7273282 C268.626397,63.9639121 270.104048,62.6117274 272.452956,62.6117274 C273.350142,62.58732 274.24056,62.7735194 275.052787,63.1553893 L274.578823,64.7515249 C273.911335,64.4062027 273.169601,64.2291445 272.418106,64.2357431 C271.163496,64.2357431 270.619832,64.9327455 270.619832,65.5391376 C270.619832,66.3755405 271.247137,66.7588918 272.710848,67.3234638 C274.599733,68.0204662 275.49887,68.9823295 275.49887,70.5366449 C275.49887,72.279151 274.18153,73.7916462 271.379568,73.7916462 C270.362747,73.7908695 269.360215,73.5521724 268.452146,73.0946438 L268.877319,71.4636582 Z" id="Path" fill-rule="nonzero"></path>
            <path d="M278.02203,71.4636582 C278.823394,71.9119481 279.724582,72.1516248 280.64277,72.1606606 C281.91829,72.1606606 282.622265,71.5682085 282.622265,70.6830155 C282.622265,69.7978224 282.078601,69.3796209 280.69156,68.8847492 C278.907226,68.236537 277.764138,67.2886137 277.764138,65.7273282 C277.764138,63.9639121 279.241789,62.6117274 281.590697,62.6117274 C282.490107,62.5875212 283.382743,62.7736851 284.197497,63.1553893 L283.716564,64.7515249 C283.051661,64.4059746 282.312119,64.2288683 281.562817,64.2357431 C280.308207,64.2357431 279.757573,64.9327455 279.757573,65.5391376 C279.757573,66.3755405 280.384878,66.7588918 281.848589,67.3234638 C283.730504,68.0204662 284.636611,68.9823295 284.636611,70.5366449 C284.636611,72.279151 283.31927,73.7916462 280.524279,73.7916462 C279.507367,73.7916462 278.504658,73.552907 277.596856,73.0946438 L278.02203,71.4636582 Z" id="Path" fill-rule="nonzero"></path>
            <path d="M119.648465,38.9066751 L122.290115,38.9066751 C122.290115,47.7795159 127.907979,49.9471934 132.110921,49.9471934 C135.7702,49.9471934 139.499178,48.1140771 139.499178,43.9808527 C139.499178,33.414296 118.589017,33.7558272 118.589017,19.3278771 C118.589017,12.0790519 123.935048,6.52394265 134.50165,6.52394265 C138.495491,6.52394265 142.970265,7.26973524 146.629544,7.81339713 L144.392156,19.0560462 L141.750506,19.0560462 C141.882937,13.9051983 139.917382,9.91137442 133.957986,9.91137442 C129.427451,9.91137442 126.576698,12.2114824 126.576698,15.8010449 C126.576698,26.507002 147.48686,25.2872478 147.48686,40.32856 C147.48686,49.0620004 140.440136,53.3346252 131.769389,53.3346252 C125.677562,53.3346252 117.829281,51.4387786 117.613209,46.4203612 C117.613209,45.6745686 117.794431,44.1899535 119.648465,38.9066751 Z" id="Path" fill-rule="nonzero"></path>
            <path d="M149.675457,50.4211551 C152.463479,50.0796239 153.536867,48.4556083 153.536867,46.0160998 L153.536867,29.9850441 C153.536867,27.1970344 153.460196,25.5102886 151.501611,25.5102886 L148.79026,25.5102886 L148.79026,23.321701 C153.441737,22.5970936 158.020223,21.4635559 162.472476,19.9342692 L162.681578,20.1363999 C162.681578,20.1363999 162.068213,21.6349551 161.73365,27.657056 C164.033768,24.5414552 167.825477,20.8821925 173.248179,20.8821925 C177.17232,20.8821925 180.497035,22.7780391 181.242831,27.3224949 C183.884482,23.9977933 187.397389,20.8821925 192.617959,20.8821925 C197.364566,20.8821925 200.814743,23.4611015 200.814743,30.0268643 L200.814743,46.0160998 C200.817795,47.220545 200.705765,48.4225269 200.48018,49.6056623 L205.895912,50.3026647 L205.61711,52.3170017 L189.223543,52.7212631 L189.223543,50.4211551 C191.314559,50.0796239 192.137025,48.4556083 192.137025,46.0160998 L192.137025,32.6894135 C192.137025,27.9497971 190.854535,26.8694433 188.415017,26.8694433 C185.836097,26.8694433 181.500723,28.0891975 181.500723,30.8632672 L181.500723,46.0160998 C181.503776,47.220545 181.391746,48.4225269 181.166161,49.6056623 L185.501534,50.0796239 L185.160001,52.3170017 L169.923464,52.7212631 L169.923464,50.4211551 C172.01448,50.0796239 172.829976,48.4556083 172.829976,46.0160998 L172.829976,32.6894135 C172.829976,27.9497971 171.610217,26.8694433 169.100997,26.8694433 C166.583724,26.8971573 164.150588,27.7794727 162.200644,29.371682 L162.200644,46.0160998 C162.203699,47.2208753 162.089314,48.4230801 161.859111,49.6056623 L166.194485,50.0796239 L165.887802,52.3170017 L149.703337,52.7212631 L149.675457,50.4211551 Z" id="Path" fill-rule="nonzero"></path>
            <path d="M206.808989,50.4211551 C209.59701,50.0796239 210.670399,48.4556083 210.670399,46.0160998 L210.670399,29.9850441 C210.670399,27.1970344 210.600698,25.5102886 208.635143,25.5102886 L205.930762,25.5102886 L205.930762,23.321701 C210.622816,22.583579 215.24413,21.4504061 219.745409,19.9342692 L219.94754,20.1363999 C219.94754,20.1363999 219.341146,22.3737777 219.341146,27.8591867 L219.341146,46.0160998 C219.341105,47.2438097 219.226768,48.4688499 218.999613,49.6753625 L224.422315,50.2817546 L224.150483,52.3170017 L206.808989,52.7212631 L206.808989,50.4211551 Z M209.380939,10.2529056 C209.380939,7.4021657 211.471955,5.4435889 214.392407,5.4435889 C217.31286,5.4435889 219.410846,7.4021657 219.410846,10.2529056 C219.410846,13.1036455 217.31983,14.9925221 214.392407,14.9925221 C211.464985,14.9925221 209.380939,13.0269752 209.380939,10.2529056 L209.380939,10.2529056 Z" id="Shape" fill-rule="nonzero"></path>
            <path d="M228.618287,30.4380957 C228.618287,28.4725489 228.813449,26.0330404 228.813449,26.0330404 L224.478075,26.0330404 L224.478075,23.1195703 C224.478075,23.1195703 227.59369,22.5131782 229.224682,21.028563 L231.796632,13.3615364 L237.623597,13.5636671 L237.825729,13.7657978 C237.825729,13.7657978 237.212364,15.257383 237.212364,20.4012608 L237.212364,21.6907153 L246.838008,21.6907153 L246.364045,25.8239397 L238.111501,25.8239397 L237.302975,26.6324625 L237.302975,41.6807447 C237.302975,45.6118384 238.04877,47.9119464 241.561678,47.9119464 C243.575292,47.8323611 245.545262,47.3011622 247.325912,46.357631 L248.413241,48.1140771 C248.413241,48.1140771 243.868765,53.3346252 236.891741,53.3346252 C232.012704,53.3346252 228.632228,50.7557163 228.632228,44.4548144 L228.618287,30.4380957 Z" id="Path" fill-rule="nonzero"></path>
            <path d="M248.427181,50.4211551 C251.215202,50.0796239 252.288591,48.4556083 252.288591,46.0160998 L252.288591,11.9466215 C252.288591,9.1586118 252.21889,7.47186595 250.253335,7.47186595 L247.751085,7.47186595 L247.751085,5.30418842 C258.589519,3.13651089 261.433301,1.81917632 261.433301,1.81917632 L261.635433,2.02827704 C261.635433,2.02827704 260.938427,4.46081549 260.938427,9.69530367 L260.938427,21.4955546 C260.938427,24.9805667 260.666595,26.8485332 260.666595,27.657056 C263.036414,24.5414552 266.939644,20.8821925 272.515687,20.8821925 C277.185623,20.8821925 280.573069,23.4611015 280.573069,30.0268643 L280.573069,46.0160998 C280.576122,47.220545 280.464092,48.4225269 280.238507,49.6056623 L285.654239,50.3026647 L285.382406,52.3379117 L268.856409,52.7421732 L268.856409,50.4420652 C271.156526,50.100534 271.902322,48.4765183 271.902322,46.0370099 L271.902322,32.6894135 C271.902322,27.9497971 270.752263,26.8694433 268.110613,26.8694433 C265.511572,26.9144643 262.995409,27.7914531 260.931457,29.371682 L260.931457,46.0160998 C260.931417,47.2438097 260.817079,48.4688499 260.589925,49.6753625 L264.855598,50.2817546 L264.583766,52.3170017 L248.3993,52.7212631 L248.427181,50.4211551 Z" id="Path" fill-rule="nonzero"></path>
        </g>
    </g>
</svg>